<?xml version="1.0" encoding="utf-8"?>
<?xml-stylesheet type="text/xsl" href="rss1.xsl"?>
<rss version="2.0" xmlns:atom="http://www.w3.org/2005/Atom" xmlns:content="http://purl.org/rss/1.0/modules/content/" xmlns:dc="http://purl.org/dc/elements/1.1/" xmlns:media="http://search.yahoo.com/mrss/">
<channel>
 <title>Getty</title>
 <link>http://www.gettyimg.com/</link>
 <atom:link href="http://www.gettyimg.com/" rel="self" type="application/rss+xml" />

 
                <item>
                <title><![CDATA[【MASTER &amp; MASTER RIP】MASTER - Shakira, Fuerza Regida – El Jefe (MasterRip AVC 1080p) – 2023]]></title>
                <link><![CDATA[https://sharemania.us/threads/shakira-fuerza-regida-%E2%80%93-el-jefe-masterrip-avc-1080p-%E2%80%93-2023.228985/]]></link>
                <description><![CDATA[<article>
<blockquote class="messageText SelectQuoteContainer ugc baseHtml">
<img src="https://i.imgur.com/zpvKkTw.jpg" class="bbCodeImage LbImage" alt="[​IMG]" data-url="https://i.imgur.com/zpvKkTw.jpg" style=""> <br>
<div class="ToggleTriggerAnchor bbCodeSpoilerContainer">
<button type="button" class="button bbCodeSpoilerButton ToggleTrigger Tooltip JsOnly" data-target="> .SpoilerTarget"><span>Spoiler: <span class="SpoilerTitle">MediaInfo</span></span></button>
<div class="SpoilerTarget bbCodeSpoilerText">General<br>
Complete name : D:\Shakira, Fuerza Regida – El Jefe (MasterRip AVC 1080p) – 2023.mp4<br>
Format : MPEG-4<br>
Format profile : Base Media<br>
Codec ID : isom (isom/iso2/avc1/mp41)<br>
File size : 453 MiB<br>
Duration : 3 min 6 s<br>
Overall bit rate mode : Variable<br>
Overall bit rate : 20.4 Mb/s<br>
Writing application : Lavf58.29.100<br>
<br>
Video<br>
ID : 1<br>
Format : AVC<br>
Format/Info : Advanced Video Codec<br>
Format profile : High@L5.2<br>
Format settings : CABAC / 4 Ref Frames<br>
Format settings, CABAC : Yes<br>
Format settings, Reference frames : 4 frames<br>
Codec ID : avc1<br>
Codec ID/Info : Advanced Video Coding<br>
Duration : 3 min 6 s<br>
Bit rate : 20.0 Mb/s<br>
Width : 1 920 pixels<br>
Height : 804 pixels<br>
Display aspect ratio : 2.40:1<br>
Frame rate mode : Constant<br>
Frame rate : 23.976 (24000/1001) FPS<br>
Color space : YUV<br>
Chroma subsampling : 4:2:0<br>
Bit depth : 8 bits<br>
Scan type : Progressive<br>
Bits/(Pixel*Frame) : 0.540<br>
Stream size : 445 MiB (98%)<br>
Writing library : x264 core 164 r3101 b093bbe<br>
Encoding settings : cabac=1 / ref=3 / deblock=1:0:0 / analyse=0x3:0x113 / me=hex / subme=7 / psy=1 / psy_rd=1.00:0.00 / mixed_ref=1 / me_range=16 / chroma_me=1 / trellis=1 / 8x8dct=1 / cqm=0 / deadzone=21,11 / fast_pskip=1 / chroma_qp_offset=-2 / threads=25 / lookahead_threads=4 / sliced_threads=0 / nr=0 / decimate=1 / interlaced=0 / bluray_compat=0 / constrained_intra=0 / bframes=3 / b_pyramid=2 / b_adapt=1 / b_bias=0 / direct=1 / weightb=1 / open_gop=0 / weightp=2 / keyint=250 / keyint_min=23 / scenecut=40 / intra_refresh=0 / rc_lookahead=40 / rc=abr / mbtree=1 / bitrate=20000 / ratetol=1.0 / qcomp=0.60 / qpmin=0 / qpmax=69 / qpstep=4 / ip_ratio=1.40 / aq=1:1.00<br>
Language : English<br>
Codec configuration box : avcC<br>
<br>
Audio<br>
ID : 2<br>
Format : AAC LC<br>
Format/Info : Advanced Audio Codec Low Complexity<br>
Codec ID : mp4a-40-2<br>
Duration : 3 min 6 s<br>
Duration_LastFrame : -16 ms<br>
Bit rate mode : Variable<br>
Bit rate : 384 kb/s<br>
Channel(s) : 2 channels<br>
Channel layout : L R<br>
Sampling rate : 48.0 kHz<br>
Frame rate : 46.875 FPS (1024 SPF)<br>
Compression mode : Lossy<br>
Stream size : 8.41 MiB (2%)<br>
Language : English<br>
Default : Yes<br>
Alternate group : 1<br>
<br>
Other<br>
ID : 3<br>
Type : Time code<br>
Format : QuickTime TC<br>
Duration : 3 min 6 s<br>
Frame rate : 23.976 (24000/1001) FPS<br>
Time code of first frame : 00:00:00:00<br>
Time code of last frame : 00:03:06:14<br>
Time code, stripped : Yes<br>
Language : English<br>
Default : No</div>
</div><br>
<div class="bbCodeBlock bbCodeVfcHH HiddenContent">
<div class="attribution type">Hidden Content:</div>
<blockquote>You must either reply or click 'Like' to see the hidden information contained here.</blockquote>
</div>
<div class="messageTextEndMarker">&nbsp;</div>
</blockquote>
</article>]]></description>
                <author><![CDATA[mariellisaa]]></author>
                </item>

                
                <item>
                <title><![CDATA[【MASTER &amp; MASTER RIP】MASTER - Doja Cat – Agora Hills (MasterRip AVC 1080p) – 2023]]></title>
                <link><![CDATA[https://sharemania.us/threads/doja-cat-%E2%80%93-agora-hills-masterrip-avc-1080p-%E2%80%93-2023.228983/]]></link>
                <description><![CDATA[<article>
<blockquote class="messageText SelectQuoteContainer ugc baseHtml">
<img src="https://i.imgur.com/6uxuf14.jpg" class="bbCodeImage LbImage" alt="[​IMG]" data-url="https://i.imgur.com/6uxuf14.jpg" style=""> <br>
<br>
<div class="ToggleTriggerAnchor bbCodeSpoilerContainer">
<button type="button" class="button bbCodeSpoilerButton ToggleTrigger Tooltip JsOnly" data-target="> .SpoilerTarget"><span>Spoiler: <span class="SpoilerTitle">MediaInfo</span></span></button>
<div class="SpoilerTarget bbCodeSpoilerText">General<br>
Complete name : D:\Doja Cat – Agora Hills (MasterRip AVC 1080p) – 2023.mp4<br>
Format : MPEG-4<br>
Format profile : Base Media<br>
Codec ID : isom (isom/iso2/avc1/mp41)<br>
File size : 1.47 GiB<br>
Duration : 5 min 10 s<br>
Overall bit rate mode : Variable<br>
Overall bit rate : 40.5 Mb/s<br>
Movie name : Agora Hills<br>
Track name/Position : 1<br>
Description : USRV82301246<br>
Writing application : Lavf58.29.100<br>
<br>
Video<br>
ID : 1<br>
Format : AVC<br>
Format/Info : Advanced Video Codec<br>
Format profile : High@L5.2<br>
Format settings : CABAC / 4 Ref Frames<br>
Format settings, CABAC : Yes<br>
Format settings, Reference frames : 4 frames<br>
Codec ID : avc1<br>
Codec ID/Info : Advanced Video Coding<br>
Duration : 5 min 10 s<br>
Bit rate : 40.0 Mb/s<br>
Width : 1 920 pixels<br>
Height : 1 080 pixels<br>
Display aspect ratio : 16:9<br>
Frame rate mode : Constant<br>
Frame rate : 24.000 FPS<br>
Color space : YUV<br>
Chroma subsampling : 4:2:0<br>
Bit depth : 8 bits<br>
Scan type : Progressive<br>
Bits/(Pixel*Frame) : 0.804<br>
Stream size : 1.45 GiB (99%)<br>
Writing library : x264 core 164 r3101 b093bbe<br>
Encoding settings : cabac=1 / ref=3 / deblock=1:0:0 / analyse=0x3:0x113 / me=hex / subme=7 / psy=1 / psy_rd=1.00:0.00 / mixed_ref=1 / me_range=16 / chroma_me=1 / trellis=1 / 8x8dct=1 / cqm=0 / deadzone=21,11 / fast_pskip=1 / chroma_qp_offset=-2 / threads=24 / lookahead_threads=4 / sliced_threads=0 / nr=0 / decimate=1 / interlaced=0 / bluray_compat=0 / constrained_intra=0 / bframes=3 / b_pyramid=2 / b_adapt=1 / b_bias=0 / direct=1 / weightb=1 / open_gop=0 / weightp=2 / keyint=250 / keyint_min=24 / scenecut=40 / intra_refresh=0 / rc_lookahead=40 / rc=abr / mbtree=1 / bitrate=40000 / ratetol=1.0 / qcomp=0.60 / qpmin=0 / qpmax=69 / qpstep=4 / ip_ratio=1.40 / aq=1:1.00<br>
Language : English<br>
Codec configuration box : avcC<br>
<br>
Audio<br>
ID : 2<br>
Format : AAC LC<br>
Format/Info : Advanced Audio Codec Low Complexity<br>
Codec ID : mp4a-40-2<br>
Duration : 5 min 10 s<br>
Duration_LastFrame : -5 ms<br>
Bit rate mode : Variable<br>
Bit rate : 375 kb/s<br>
Maximum bit rate : 384 kb/s<br>
Channel(s) : 2 channels<br>
Channel layout : L R<br>
Sampling rate : 48.0 kHz<br>
Frame rate : 46.875 FPS (1024 SPF)<br>
Compression mode : Lossy<br>
Stream size : 13.9 MiB (1%)<br>
Language : English<br>
Default : Yes<br>
Alternate group : 1<br>
<br>
Other<br>
ID : 3<br>
Type : Time code<br>
Format : QuickTime TC<br>
Duration : 5 min 10 s<br>
Frame rate : 24.000 FPS<br>
Time code of first frame : 00:00:00:04<br>
Time code of last frame : 00:05:10:22<br>
Time code, stripped : Yes<br>
Language : English<br>
Default : No</div>
</div><br>
<div class="bbCodeBlock bbCodeVfcHH HiddenContent">
<div class="attribution type">Hidden Content:</div>
<blockquote>You must either reply or click 'Like' to see the hidden information contained here.</blockquote>
</div>
<div class="messageTextEndMarker">&nbsp;</div>
</blockquote>
</article>]]></description>
                <author><![CDATA[mariellisaa]]></author>
                </item>

                
                <item>
                <title><![CDATA[【Bugs!】Lee Hi ft.Yoonmirae - «Red Lipstick» [Bugs! 2160p]]]></title>
                <link><![CDATA[https://sharemania.us/threads/lee-hi-ft-yoonmirae-%C2%ABred-lipstick%C2%BB-bugs-2160p.228989/]]></link>
                <description><![CDATA[<article>
<blockquote class="messageText SelectQuoteContainer ugc baseHtml">
thank you so much!!
<div class="messageTextEndMarker">&nbsp;</div>
</blockquote>
</article>]]></description>
                <author><![CDATA[WithLoveSNSD]]></author>
                </item>

                
                <item>
                <title><![CDATA[【MASTER &amp; MASTER RIP】MASTER - Black Eyed Peas – GUARANTEE (MasterRip AVC 1080p) – 2023]]></title>
                <link><![CDATA[https://sharemania.us/threads/black-eyed-peas-%E2%80%93-guarantee-masterrip-avc-1080p-%E2%80%93-2023.228987/]]></link>
                <description><![CDATA[<article>
<blockquote class="messageText SelectQuoteContainer ugc baseHtml">
thanks
<div class="messageTextEndMarker">&nbsp;</div>
</blockquote>
</article>]]></description>
                <author><![CDATA[mariellisaa]]></author>
                </item>

                
                <item>
                <title><![CDATA[【HD Live Performances】HDTV - Girls' Generation - Back Hug / Mr. Mr. Live @ SBS Inkigayo 03/09/2014 1080i HDTV DD2.0-XXI]]></title>
                <link><![CDATA[https://sharemania.us/threads/girls-generation-back-hug-mr-mr-live-sbs-inkigayo-03-09-2014-1080i-hdtv-dd2-0-xxi.228986/]]></link>
                <description><![CDATA[<article>
<blockquote class="messageText SelectQuoteContainer ugc baseHtml">
<div style="text-align: center"><img src="https://i.imgur.com/Objivdy.jpg" class="bbCodeImage LbImage" alt="[​IMG]" data-url="https://i.imgur.com/Objivdy.jpg" style=""> <br>
<br>
<img src="https://i.imgur.com/1BeCqc2.jpg" class="bbCodeImage LbImage" alt="[​IMG]" data-url="https://i.imgur.com/1BeCqc2.jpg" style=""> <br>
<div class="ToggleTriggerAnchor bbCodeSpoilerContainer">
<button type="button" class="button bbCodeSpoilerButton ToggleTrigger Tooltip JsOnly" data-target="> .SpoilerTarget"><span>Spoiler: <span class="SpoilerTitle">Media Info</span></span></button>
<div class="SpoilerTarget bbCodeSpoilerText">
<div class="bbCodeBlock bbCodeQuote">
<aside>
<blockquote class="quoteContainer"><div class="quote">General<br>
Complete name : Lee Hi - Red Lipstick (Feat. Yoonmirae) (Bugs!).mp4<br>
Format : MPEG-4<br>
Format profile : Base Media / Version 2<br>
Codec ID : mp42 (mp42/mp41)<br>
File size : 1.15 GiB<br>
Duration : 3 min 35 s<br>
Overall bit rate mode : Variable<br>
Overall bit rate : 45.7 Mb/s<br>
Encoded date : UTC 2021-09-06 16:20:06<br>
Tagged date : UTC 2021-09-06 16:20:17<br>
TIM : 00:00:00:00<br>
TSC : 24000<br>
TSZ : 1001<br>
<br>
Video<br>
ID : 1<br>
Format : AVC<br>
Format/Info : Advanced Video Codec<br>
Format profile : Main@L5.1<br>
Format settings : CABAC / 1 Ref Frames<br>
Format settings, CABAC : Yes<br>
Format settings, Reference : 1 frame<br>
Format settings, GOP : M=1, N=30<br>
Codec ID : avc1<br>
Codec ID/Info : Advanced Video Coding<br>
Duration : 3 min 35 s<br>
Bit rate : 45.4 Mb/s<br>
Width : 2 880 pixels<br>
Height : 2 160 pixels<br>
Display aspect ratio : 4:3<br>
Frame rate mode : Constant<br>
Frame rate : 23.976 (24000/1001) FPS<br>
Color space : YUV<br>
Chroma subsampling : 4:2:0<br>
Bit depth : 8 bits<br>
Scan type : Progressive<br>
Bits/(Pixel*Frame) : 0.304<br>
Stream size : 1.14 GiB (99%)<br>
Language : English<br>
Encoded date : UTC 2021-09-06 16:20:06<br>
Tagged date : UTC 2021-09-06 16:20:06<br>
Codec configuration box : avcC<br>
<br>
Audio<br>
ID : 2<br>
Format : AAC LC<br>
Format/Info : Advanced Audio Codec Low Complexity<br>
Codec ID : mp4a-40-2<br>
Duration : 3 min 35 s<br>
Source duration : 3 min 35 s<br>
Bit rate mode : Variable<br>
Bit rate : 317 kb/s<br>
Maximum bit rate : 410 kb/s<br>
Channel(s) : 2 channels<br>
Channel layout : L R<br>
Sampling rate : 48.0 kHz<br>
Frame rate : 46.875 FPS (1024 SPF)<br>
Compression mode : Lossy<br>
Stream size : 8.15 MiB (1%)<br>
Source stream size : 8.15 MiB (1%)<br>
Language : English<br>
Encoded date : UTC 2021-09-06 16:20:06<br>
Tagged date : UTC 2021-09-06 16:20:06</div><div class="quoteExpand">Click to expand...</div></blockquote>
</aside>
</div></div>
</div><b><span style="font-family: 'Book Antiqua'"><span style="font-size: 26px">
<div class="ToggleTriggerAnchor bbCodeSpoilerContainer">
<button type="button" class="button bbCodeSpoilerButton ToggleTrigger Tooltip JsOnly" data-target="> .SpoilerTarget"><span>Spoiler: <span class="SpoilerTitle">Credits</span></span></button>
<div class="SpoilerTarget bbCodeSpoilerText"><span style="color: rgb(179, 179, 0)">Original Uploader</span> - <span style="color: rgb(0, 255, 0)">frizzy</span> from <span style="color: rgb(0, 128, 255)">Jpopsuki</span></div>
</div></span></span></b><span style="font-family: 'Book Antiqua'"><span style="font-size: 15px"><span data-s9e-mediaembed="youtube" style="display:inline-block;width:100%;max-width:640px"><span style="display:block;overflow:hidden;position:relative;padding-bottom:56.25%"><iframe allowfullscreen="" loading="lazy" scrolling="no" style="background:url(https://i.ytimg.com/vi/GLlP-CNlY9I/hqdefault.jpg) 50% 50% / cover;border:0;height:100%;left:0;position:absolute;width:100%" src="https://www.youtube.com/embed/GLlP-CNlY9I"></iframe></span></span><br>
<br>
<div class="bbCodeBlock bbCodeVfcHH HiddenContent">
<div class="attribution type">Hidden Content:</div>
<blockquote>You must reply before you can see the hidden data contained here.</blockquote>
</div></span></span>​</div>
<div class="messageTextEndMarker">&nbsp;</div>
</blockquote>
</article>]]></description>
                <author><![CDATA[XXI]]></author>
                </item>

                
                <item>
                <title><![CDATA[【Albums (lossy)】Dolby Atmos - Schiller - Epic [Dolby Atmos E-AC3-JOC | 16-bit/48kHz | 5.1 | 768 kb/s]]]></title>
                <link><![CDATA[https://sharemania.us/threads/schiller-epic-dolby-atmos-e-ac3-joc-16-bit-48khz-5-1-768-kb-s.228988/]]></link>
                <description><![CDATA[<article>
<blockquote class="messageText SelectQuoteContainer ugc baseHtml">
<img src="https://i.imgur.com/nzTfoMu.jpg" class="bbCodeImage LbImage" alt="[​IMG]" data-url="https://i.imgur.com/nzTfoMu.jpg" style=""> <br>
<br>
<div class="ToggleTriggerAnchor bbCodeSpoilerContainer">
<button type="button" class="button bbCodeSpoilerButton ToggleTrigger Tooltip JsOnly" data-target="> .SpoilerTarget"><span>Spoiler: <span class="SpoilerTitle">MediaInfo</span></span></button>
<div class="SpoilerTarget bbCodeSpoilerText">General<br>
Complete name : D:\Black Eyed Peas – GUARANTEE (MasterRip AVC 1080p) – 2023.mp4<br>
Format : MPEG-4<br>
Format profile : Base Media<br>
Codec ID : isom (isom/iso2/avc1/mp41)<br>
File size : 553 MiB<br>
Duration : 3 min 34 s<br>
Overall bit rate : 21.6 Mb/s<br>
Movie name : GUARANTEE<br>
Track name/Position : 1<br>
Description : USSM22302137<br>
Writing application : Lavf58.29.100<br>
<br>
Video<br>
ID : 1<br>
Format : AVC<br>
Format/Info : Advanced Video Codec<br>
Format profile : High@L5.2<br>
Format settings : CABAC / 4 Ref Frames<br>
Format settings, CABAC : Yes<br>
Format settings, Reference frames : 4 frames<br>
Codec ID : avc1<br>
Codec ID/Info : Advanced Video Coding<br>
Duration : 3 min 34 s<br>
Bit rate : 21.3 Mb/s<br>
Nominal bit rate : 20.0 Mb/s<br>
Width : 1 920 pixels<br>
Height : 760 pixels<br>
Display aspect ratio : 2.526<br>
Frame rate mode : Constant<br>
Frame rate : 25.000 FPS<br>
Color space : YUV<br>
Chroma subsampling : 4:2:0<br>
Bit depth : 8 bits<br>
Scan type : Progressive<br>
Bits/(Pixel*Frame) : 0.583<br>
Stream size : 543 MiB (98%)<br>
Writing library : x264 core 164 r3101 b093bbe<br>
Encoding settings : cabac=1 / ref=3 / deblock=1:0:0 / analyse=0x3:0x113 / me=hex / subme=7 / psy=1 / psy_rd=1.00:0.00 / mixed_ref=1 / me_range=16 / chroma_me=1 / trellis=1 / 8x8dct=1 / cqm=0 / deadzone=21,11 / fast_pskip=1 / chroma_qp_offset=-2 / threads=24 / lookahead_threads=4 / sliced_threads=0 / nr=0 / decimate=1 / interlaced=0 / bluray_compat=0 / constrained_intra=0 / bframes=3 / b_pyramid=2 / b_adapt=1 / b_bias=0 / direct=1 / weightb=1 / open_gop=0 / weightp=2 / keyint=250 / keyint_min=25 / scenecut=40 / intra_refresh=0 / rc_lookahead=40 / rc=abr / mbtree=1 / bitrate=20000 / ratetol=1.0 / qcomp=0.60 / qpmin=0 / qpmax=69 / qpstep=4 / ip_ratio=1.40 / aq=1:1.00<br>
Language : English<br>
Codec configuration box : avcC<br>
<br>
Audio<br>
ID : 2<br>
Format : AAC LC<br>
Format/Info : Advanced Audio Codec Low Complexity<br>
Codec ID : mp4a-40-2<br>
Duration : 3 min 34 s<br>
Bit rate mode : Constant<br>
Bit rate : 384 kb/s<br>
Channel(s) : 2 channels<br>
Channel layout : L R<br>
Sampling rate : 48.0 kHz<br>
Frame rate : 46.875 FPS (1024 SPF)<br>
Compression mode : Lossy<br>
Stream size : 9.80 MiB (2%)<br>
Language : English<br>
Default : Yes<br>
Alternate group : 1<br>
<br>
Other<br>
ID : 3<br>
Type : Time code<br>
Format : QuickTime TC<br>
Duration : 3 min 34 s<br>
Frame rate : 25.000 FPS<br>
Time code of first frame : 00:00:00:00<br>
Time code of last frame : 00:03:34:09<br>
Time code, stripped : Yes<br>
Language : English<br>
Default : No</div>
</div><br>
<br>
<div class="bbCodeBlock bbCodeVfcHH HiddenContent">
<div class="attribution type">Hidden Content:</div>
<blockquote>You must either reply or click 'Like' to see the hidden information contained here.</blockquote>
</div>
<div class="messageTextEndMarker">&nbsp;</div>
</blockquote>
</article>]]></description>
                <author><![CDATA[ADHDerby]]></author>
                </item>

                
                <item>
                <title><![CDATA[【Requests】[REQ VID] - Mimi Webb Live at SWR3 Festival 2023]]></title>
                <link><![CDATA[https://sharemania.us/threads/mimi-webb-live-at-swr3-festival-2023.228984/]]></link>
                <description><![CDATA[<article>
<blockquote class="messageText SelectQuoteContainer ugc baseHtml">
danke will be ther fergie?
<div class="messageTextEndMarker">&nbsp;</div>
</blockquote>
</article>]]></description>
                <author><![CDATA[seriouslysir]]></author>
                </item>

                </channel></rss>